PathFileType	4	(X/Y/Z)	C:/Users/beibeiliu/ov580/test_trc\sequence.32_training_dense_right.trc
DataRate	CameraRate	NumFrames	NumMarkers	Units	OrigDataRate	OrigDataStartFrame	OrigNumFrames
120	120	8	19	mm	120	115	200
Frame#	Time	ThumbCMC			ThumbMCP			ThumbIP			ThumbTip			IndexMCP			IndexPIP			IndexTip			MiddleMCP			MiddlePIP			MiddleTip			RingMCP			RingPIP			RingTip			PinkyMCP			PinkyPIP			PinkyTip			BackHand1			BackHand2			BackHand3	
		X0	Y0	Z0	X1	Y1	Z1	X2	Y2	Z2	X3	Y3	Z3	X4	Y4	Z4	X5	Y5	Z5	X6	Y6	Z6	X7	Y7	Z7	X8	Y8	Z8	X9	Y9	Z9	X10	Y10	Z10	X11	Y11	Z11	X12	Y12	Z12	X13	Y13	Z13	X14	Y14	Z14	X15	Y15	Z15	X16	Y16	Z16	X17	Y17	Z17	X18	Y18	Z18	
114	0.95	2.06659	97.4109	10.4041	-13.1963	94.2052	-12.0726	-20.1048	97.4933	-33.2844	-20.49	98.6912	-59.91	17.8045	145.543	-25.983	11.3892	161.153	-49.0157	1.82989	153.439	-73.8202	47.2576	142.718	-33.2092	45.8329	157.962	-56.1208	35.769	151.68	-83.5922	54.7161	129.988	-37.0701	55.3122	137.425	-65.7574	43.6305	127.61	-82.7337	69.1615	104.31	-41.4465	65.6744	107.649	-66.9932	54.0689	100.86	-82.2591	56.1154	104.548	-1.36149	53.5774	96.8587	18.3628	30.7511	110.38	15.9294	
115	0.958333	0.107914	94.5133	16.9918	-18.5997	96.7197	-8.15676	-24.8128	101.427	-30.0822	-15.7117	99.7953	-54.8708	18.8861	143.299	-24.1862	8.85972	157.899	-49.5646	-5.95218	139.042	-68.9792	41.2337	142.909	-31.0781	41.0345	152.538	-62.5546	20.9826	134.829	-80.0623	54.0377	124.78	-35.7218	47.5844	134.758	-62.019	33.0361	116.003	-75.8085	62.675	107.089	-40.6742	56.1407	109.133	-63.9482	39.6548	100.88	-75.0749	52.6005	103.353	0.478541	51.4366	92.1536	21.2734	32.883	111.75	16.6784	
116	0.966667	2.8042	93.9026	15.1346	-19.2575	98.0101	-6.12193	-27.2254	104.132	-28.8865	-18.5897	100.587	-50.6847	16.2209	139.603	-27.167	4.04692	149.396	-54.7984	-3.37262	123.126	-68.0718	37.1038	140.403	-35.5652	35.6464	142.112	-66.4194	19.0095	118.384	-76.0795	50.456	125.01	-40.1683	44.9541	126.09	-65.7551	28.9873	105.951	-71.0785	60.4835	105.358	-40.3001	58.0157	105.77	-62.0663	34.6101	94.5306	-70.4834	50.0992	104.013	-2.8391	50.4482	89.9899	24.1095	28.5917	108.196	19.0653	
117	0.975	3.20978	91.1706	15.9436	-20.7486	99.755	0.24524	-21.9821	105.344	-23.5887	-17.6497	101.657	-49.9681	11.3425	137.816	-32.1657	2.1365	140.841	-57.8697	-5.48175	113.373	-67.7575	35.5526	133.518	-40.2207	31.4208	137.462	-66.9351	15.1584	107.591	-74.1256	51.4328	117.856	-42.5435	42.7315	117.967	-67.3026	23.8151	95.1373	-68.4317	63.5862	99.1814	-43.356	58.5116	99.755	-63.6249	34.036	86.3544	-70.5931	48.7187	100.365	-3.86731	52.2657	84.6206	19.8079	28.1041	106.599	12.0803	
118	0.983333	2.78604	90.2797	19.7409	-16.131	102.548	-0.135077	-23.6838	107.187	-19.8428	-16.8525	102.777	-45.8433	11.1948	129.417	-34.5678	2.37226	133.96	-62.4995	-7.12537	105.418	-70.3062	33.0405	125.874	-43.1861	28.8884	128.608	-72.6984	16.5129	97.0766	-76.2854	51.7879	114.641	-47.3869	41.8246	109.064	-73.0648	23.7068	89.9443	-71.4135	62.8628	93.0729	-39.6424	60.6286	91.108	-67.4509	41.3797	82.6381	-73.7374	51.1527	97.0987	-3.44784	52.6786	85.1826	18.4799	29.6393	105.921	10.3783	
119	0.991667	4.67304	90.2748	16.923	-15.1189	103.063	1.24106	-19.5019	107.705	-19.5744	-17.6758	102.812	-43.8787	10.3328	124.363	-39.0315	4.55707	124.311	-69.2412	-4.41095	97.888	-75.0503	32.7998	124.174	-50.6882	26.6306	119.78	-78.9651	17.8403	90.6862	-80.9567	48.2072	110.411	-47.072	42.863	105.482	-75.9691	27.2145	87.5906	-76.4532	66.4329	89.686	-39.1887	64.1955	91.6648	-66.9601	47.2736	80.1306	-78.1367	49.3603	95.4741	-5.19847	51.1568	90.168	16.2244	26.6243	104.033	8.41517	
120	1	5.305	90.7763	18.0077	-14.5299	105.472	-0.097597	-18.5296	108.643	-21.5545	-18.8363	105.372	-44.2253	11.0596	121.799	-48.3089	1.38496	117.798	-72.9987	-3.23287	91.1613	-79.6364	28.3598	120.651	-55.5077	25.9593	114.541	-81.6711	14.3699	82.9561	-85.0371	49.2264	108.303	-49.9896	45.6309	105.387	-76.914	30.8152	83.1272	-82.7633	67.8867	89.806	-39.7749	71.7241	92.8201	-63.2918	56.3886	81.0415	-82.4977	49.0478	98.6655	-10.172	51.8109	91.0665	18.7941	28.8792	105.821	7.11852	
121	1.00833	5.58639	92.4882	17.2348	-13.8647	101.745	4.04162	-18.5993	110.457	-22.4168	-21.695	108.751	-43.7941	10.4534	117.831	-47.7836	-1.78071	110.504	-75.395	-5.11502	82.4493	-80.5438	30.988	114.914	-55.3534	22.0564	109.527	-83.63	13.2556	74.7897	-85.2138	51.1616	107.422	-51.5443	44.0621	101.971	-79.6416	26.6742	81.8996	-85.0309	68.3441	92.7285	-40.9545	72.0168	96.713	-62.3485	64.3017	85.0602	-84.4902	50.7097	99.5859	-9.66979	54.3855	91.5421	14.9476	31.1971	104.816	4.07817	
